<svg width="1920" height="1080" viewBox="0 0 1920 1080" fill="none" xmlns="http://www.w3.org/2000/svg">
  <!-- Background Gradient -->
  <defs>
    <linearGradient id="heroGradient" x1="0%" y1="0%" x2="100%" y2="100%">
      <stop offset="0%" style="stop-color:#1e3a8a;stop-opacity:1" />
      <stop offset="50%" style="stop-color:#3b82f6;stop-opacity:1" />
      <stop offset="100%" style="stop-color:#60a5fa;stop-opacity:1" />
    </linearGradient>
    <linearGradient id="overlayGradient" x1="0%" y1="0%" x2="100%" y2="100%">
      <stop offset="0%" style="stop-color:#000000;stop-opacity:0.3" />
      <stop offset="100%" style="stop-color:#000000;stop-opacity:0.1" />
    </linearGradient>
  </defs>
  
  <!-- Main Background -->
  <rect width="1920" height="1080" fill="url(#heroGradient)"/>
  
  <!-- Decorative Elements -->
  <circle cx="200" cy="200" r="100" fill="rgba(255,255,255,0.1)" opacity="0.5"/>
  <circle cx="1720" cy="880" r="150" fill="rgba(255,255,255,0.08)" opacity="0.6"/>
  <circle cx="1600" cy="300" r="80" fill="rgba(255,255,255,0.12)" opacity="0.4"/>
  <circle cx="300" cy="800" r="120" fill="rgba(255,255,255,0.06)" opacity="0.7"/>
  
  <!-- Abstract Shapes -->
  <path d="M0 600 Q480 400 960 600 T1920 600 V1080 H0 Z" fill="rgba(255,255,255,0.05)"/>
  <path d="M0 700 Q480 500 960 700 T1920 700 V1080 H0 Z" fill="rgba(255,255,255,0.03)"/>
  
  <!-- Celebration Icons -->
  <!-- Party Hat -->
  <g transform="translate(1400, 150)">
    <path d="M20 60 L40 10 L60 60 Z" fill="rgba(255,255,255,0.2)" stroke="rgba(255,255,255,0.3)" stroke-width="2"/>
    <circle cx="40" cy="10" r="3" fill="rgba(255,255,255,0.4)"/>
    <line x1="25" y1="45" x2="55" y2="45" stroke="rgba(255,255,255,0.3)" stroke-width="2"/>
  </g>
  
  <!-- Balloons -->
  <g transform="translate(150, 400)">
    <ellipse cx="20" cy="30" rx="12" ry="18" fill="rgba(255,255,255,0.15)"/>
    <ellipse cx="40" cy="25" rx="12" ry="18" fill="rgba(255,255,255,0.12)"/>
    <ellipse cx="60" cy="35" rx="12" ry="18" fill="rgba(255,255,255,0.18)"/>
    <line x1="20" y1="48" x2="20" y2="80" stroke="rgba(255,255,255,0.2)" stroke-width="1"/>
    <line x1="40" y1="43" x2="40" y2="75" stroke="rgba(255,255,255,0.2)" stroke-width="1"/>
    <line x1="60" y1="53" x2="60" y2="85" stroke="rgba(255,255,255,0.2)" stroke-width="1"/>
  </g>
  
  <!-- Stars -->
  <g fill="rgba(255,255,255,0.3)">
    <path d="M500 200 L502 206 L508 206 L503 210 L505 216 L500 212 L495 216 L497 210 L492 206 L498 206 Z"/>
    <path d="M800 150 L802 156 L808 156 L803 160 L805 166 L800 162 L795 166 L797 160 L792 156 L798 156 Z"/>
    <path d="M1200 250 L1202 256 L1208 256 L1203 260 L1205 266 L1200 262 L1195 266 L1197 260 L1192 256 L1198 256 Z"/>
    <path d="M400 500 L402 506 L408 506 L403 510 L405 516 L400 512 L395 516 L397 510 L392 506 L398 506 Z"/>
    <path d="M1500 500 L1502 506 L1508 506 L1503 510 L1505 516 L1500 512 L1495 516 L1497 510 L1492 506 L1498 506 Z"/>
  </g>
  
  <!-- Confetti -->
  <g fill="rgba(255,255,255,0.4)">
    <rect x="300" y="300" width="4" height="4" transform="rotate(45 302 302)"/>
    <rect x="700" y="400" width="4" height="4" transform="rotate(30 702 402)"/>
    <rect x="1100" y="350" width="4" height="4" transform="rotate(60 1102 352)"/>
    <rect x="1300" y="450" width="4" height="4" transform="rotate(15 1302 452)"/>
    <rect x="600" y="600" width="4" height="4" transform="rotate(75 602 602)"/>
  </g>
  
  <!-- Overlay for better text readability -->
  <rect width="1920" height="1080" fill="url(#overlayGradient)"/>
</svg>